<svg version="1.2" xmlns="http://www.w3.org/2000/svg" viewBox="0 0 548 672" width="548" height="672">
	<title>Objects</title>
	<style>
		.s0 { fill: #000000 } 
	</style>
	<g id="Objects">
		<path id="Aries" class="s0" d="m281.3 671.5h-15.9c-1.1-26-2-52.4-2.8-77.9q-0.5-17.5-1.1-35l0.1-414.4c-0.4-12.5-2.1-24.2-5.2-34.6-3.7-11.4-8.7-22.1-15-31.6-6.6-9.6-14.5-18.3-23.5-25.9-8.9-7.2-19-13.2-30-18-10.1-4.1-21.5-7-34-8.4-11.8-1-23.6-0.4-34.8 1.7-11.9 2.6-23 6.5-32.9 11.8-10.2 5.6-19.7 12.7-28.1 20.9-8.1 8.2-15.1 17.8-20.8 28.1-5.2 9.7-9.1 20.8-11.8 32.9-2 11-2.6 22.8-1.6 35 1.2 11.1 4.1 22.6 8.5 33.9 4.5 11 10.3 21.4 17.4 30.6 7.3 9.1 16 17.4 25.7 24.4 9.3 6.4 20.1 11.9 31.8 15.9 10.5 3.5 22.5 5.6 35.5 6.3l-0.4 16c-14.4 0.1-28.1-1.6-40.4-4.9-13.7-4.1-26.3-9.7-37.7-16.8-11.7-7.6-22.2-16.7-31.3-27.1-9-10.6-16.5-22.4-22.3-35.3-5.1-11.7-8.3-24.6-10.3-40.7-1.2-14.6-0.5-28.6 2-41.9 3.1-14.5 7.8-27.7 14.1-39.5 6.8-12.4 15.2-23.6 24.9-33.6 10.1-9.9 21.4-18.3 33.6-25 12-6.3 25.2-11.1 39.4-14.1 13.6-2.6 27.6-3.3 41.9-2.1 14.9 1.7 28.5 5.1 40.7 10.1 13.1 5.7 25.2 12.9 35.9 21.5 10.8 9.2 20.2 19.5 28.1 31q7.1 10.8 12.4 22.9 5.2-12.1 12.2-22.7c8-11.7 17.4-22 28.1-31 10.8-8.8 22.9-16 35.9-21.6 12.3-5.1 25.9-8.5 40.6-10.2 14.5-1.2 28.5-0.5 41.9 2 14.4 3.1 27.6 7.9 39.4 14.1 12.4 6.8 23.7 15.2 33.6 24.9 9.9 10.2 18.3 21.4 25 33.6 6.3 12 11.1 25.2 14.2 39.5v0.2c2.5 13.3 3.2 27.3 2 41.6-1.9 16.1-5.3 29.4-10.1 40.8-5.9 13-13.4 24.8-22.3 35.4-9.3 10.5-19.8 19.6-31.4 27.2-11.4 7.2-24.1 12.8-37.6 16.8-12.5 3.3-26.1 5-40.7 4.9l-0.3-16c13-0.7 24.9-2.8 35.6-6.3 11.6-4.1 22.4-9.5 31.8-16.1 9.6-6.9 18.2-15.1 25.7-24.4 6.9-8.9 12.7-19.3 17.3-30.6 4.4-11.1 7.3-22.6 8.6-34 0.9-11.9 0.3-23.7-1.8-34.9-2.6-11.9-6.5-23-11.8-32.9-5.6-10.1-12.6-19.7-20.8-28.1-8.3-8-17.8-15.1-28.2-20.8-9.7-5.2-20.8-9.1-32.9-11.7-11-2.1-22.8-2.7-34.9-1.7-12.2 1.4-23.6 4.3-33.8 8.5-10.9 4.7-21 10.7-30 18-8.9 7.5-16.8 16.2-23.5 25.9-6.2 9.4-11.2 20.1-15 31.7-3 10.2-4.7 21.9-5.1 34.6l0.1 413.9c-0.4 12.1-0.8 23.8-1.2 35.6-0.7 25.4-1.6 51.7-2.7 77.6z"/>
	</g>
</svg>