<svg version="1.2" xmlns="http://www.w3.org/2000/svg" viewBox="0 0 572 796" width="572" height="796">
	<title>Objects</title>
	<style>
		.s0 { fill: #000000 } 
	</style>
	<g id="Objects">
		<path id="Capricorn" fill-rule="evenodd" class="s0" d="m229.8 793.2l34.8-47.5c7.2-9.9 13.3-19.1 18.6-27.9l0.5-0.7c6.2-8.1 12-17.1 17.9-27.5 5.3-9.4 10-19.4 14-29.7 1.6-3.7 2.9-7.5 4.2-11.4l1.4-4q0.6-2.2 1.3-4.4c1.1-3.9 2.2-7.5 3.1-11.2 4.8-19.2 7.8-40.2 9.6-66.1 0.3-5.1 0.5-10.6 0.8-17.7v-394.7c0.1-19.4-3.3-37-10.1-52.2-7.1-16.2-17.9-31-31.2-42.8-13.6-12.1-29.6-20.9-46.2-25.7-17-4.9-35.3-6.1-52.8-3.6-17.6 2-35 8.1-50.6 17.7-12.6 7.9-23.7 18-33.2 30 2 4.2 3.7 8.5 5.1 12.8 0.9 2.7 1.6 5.4 2.2 7.9q0.5 1.9 1 3.8l0.1 0.5c0.5 2.7 0.9 5.4 1.3 8q0.3 1.9 0.6 3.8l0.1 0.8 0.6 12.1v460.6c-0.4 9.7-0.7 19.1-1.1 28.5-0.8 20.2-1.6 41.2-2.7 61.8h-16c-1.1-20.7-1.9-41.8-2.7-62.2q-0.6-13.9-1.1-27.7v-460.8l-0.5-10.2q-0.3-1.9-0.6-3.7c-0.3-2-0.6-4.1-1-6q-0.5-1.9-0.9-3.8c-0.6-2.1-1.1-4.1-1.7-6-4-12.4-10.9-24.2-20-34.4-8.7-10.5-19.6-19.2-31.6-25.1-12.2-6.1-25.9-9.7-39.6-10.4l-0.1-15.9c32.3-1.8 65.4 11.4 88.7 35.4q6 6.6 10.9 14c8.8-11.8 19.4-22.2 31.2-30.5 17.6-12.5 37.7-20.9 57.9-24.4 10-1.6 20.7-2 31.9-1.1 9.6 0.5 19.8 2.3 31.1 5.5 20 5.6 39.1 16.3 55.3 30.6 15.9 14.1 28.7 31.7 37.2 51 4.2 9.3 7.3 19.6 9.4 30.4 2 10.7 2.9 21.3 2.7 31.5v281.6c21.7-28.9 56.2-46.9 93.2-46.9 64.3 0 116.6 52.3 116.6 116.6 0 64.3-52.3 116.5-116.6 116.5-37.7 0-72.9-18.7-94.5-48.5-1.9 24.9-5 45.5-9.8 64.5-0.9 4.2-2.2 8.5-3.5 12.7q-0.6 2.2-1.3 4.4l-0.1 0.4-1.4 4.1c-1.4 4.2-2.9 8.5-4.7 12.8-4.4 11.1-9.6 22-15.3 32.3-5.4 9.6-11.7 19.4-19.4 30.1l-0.5 0.6c-8.3 9.3-17.2 17.7-26.3 24.9zm316-291.3c0-51.4-41.6-92.9-93-92.9-51.4 0-92.9 41.5-92.9 92.9 0 51.4 41.5 93 92.9 93 51.4 0 93-41.6 93-93z"/>
	</g>
</svg>