<svg version="1.2" xmlns="http://www.w3.org/2000/svg" viewBox="0 0 844 332" width="844" height="332">
	<title>Objects</title>
	<style>
		.s0 { fill: #000000 } 
	</style>
	<g id="Objects">
		<path id="Aquarius" class="s0" d="m1.9 95.2c0-2.4 1.7-4 3.7-5q4.6-2.3 9.2-4.6 9.2-4.5 18.4-8.9 9.3-4.5 18.6-8.8 9.2-4.3 18.6-8.6 9.3-4.2 18.7-8.4 9.3-4.1 18.8-8.2 9.4-4.1 18.8-8 9.5-4 19-7.9 9.4-3.8 19-7.6 9.5-3.8 19.1-7.5 9.5-3.6 19-7.2c4-1.5 8.2-2.9 12.2-1.8 8.3 2.3 9.9 13.3 9.9 21.9q-0.2 28.8-0.3 57.5 90.1-37.8 180.1-75.7c8.2-3.4 19.5-6 24.5 1.4 2.1 3.1 2.1 7.2 2.1 11q0.1 30.4 0.1 60.8 89-38.7 179.6-73.6c8.1-3.1 19.1-5.4 24 1.9 2.1 3.1 2.2 7.2 2.2 11q0 31.7 0 63.4 91.9-39.7 185-76.4c2.7-1.1 5.6-2.1 8.5-2.1 3.7-0.1 6.9 1.9 8.8 5.1 2.6 4.5 2.9 10.2 2.7 15.2q-1 38-2.1 75.9-8 0.1-15.9 0.1-1-35.7-1.9-71.4-92.5 41.1-186.3 79.2c-4.4 1.8-9.3 3.6-13.7 2-7.4-2.7-8.7-12.5-8.7-20.4q-0.1-29.8-0.2-59.7-93.2 38.3-186.4 76.5c-3 1.3-6.3 2.5-9.5 2-8.2-1.4-10-12.1-10-20.4q0.2-28.6 0.3-57.1-90 37.8-180.1 75.6c-8.1 3.5-19.4 6.1-24.3-1.2-2.2-3.2-2.3-7.3-2.3-11.2q-0.1-31.8-0.1-63.7-87.5 34.1-175 68.1c-4.1 1.6-8.5 2.8-12.9 2.9-4 0.2-11.2-0.8-11.2-6.1zm0 220.5c0-2.4 1.7-4 3.7-5q4.6-2.3 9.2-4.5 9.2-4.6 18.4-9 9.3-4.4 18.6-8.8 9.2-4.3 18.6-8.6 9.3-4.2 18.7-8.4 9.3-4.1 18.8-8.2 9.4-4 18.8-8 9.5-4 19-7.8 9.4-3.9 19-7.7 9.5-3.8 19.1-7.4 9.5-3.7 19-7.3c4-1.4 8.2-2.9 12.2-1.8 8.3 2.4 9.9 13.3 9.9 21.9q-0.2 28.8-0.3 57.5 90.1-37.8 180.1-75.6c8.2-3.5 19.5-6.1 24.5 1.3 2.1 3.1 2.1 7.2 2.1 11q0.1 30.4 0.1 60.8 89-38.7 179.6-73.5c8.1-3.2 19.1-5.4 24 1.8 2.1 3.1 2.2 7.2 2.2 11q0 31.7 0 63.4 91.9-39.6 185-76.4c2.7-1 5.6-2.1 8.5-2.1 3.7 0 6.9 1.9 8.8 5.1 2.6 4.5 2.9 10.2 2.7 15.3q-1 37.9-2.1 75.9-8 0-15.9 0-1-35.7-1.9-71.4-92.5 41.1-186.3 79.2c-4.4 1.8-9.3 3.6-13.7 2-7.4-2.7-8.7-12.5-8.7-20.3q-0.1-29.9-0.2-59.7-93.2 38.2-186.4 76.4c-3 1.3-6.3 2.6-9.5 2-8.2-1.4-10-12.1-10-20.4q0.2-28.5 0.3-57.1-90 37.8-180.1 75.7c-8.1 3.4-19.4 6-24.3-1.3-2.2-3.2-2.3-7.3-2.3-11.2q-0.1-31.8-0.1-63.7-87.5 34.1-175 68.1c-4.1 1.6-8.5 2.8-12.9 2.9-4 0.2-11.2-0.7-11.2-6.1z"/>
	</g>
</svg>