<svg version="1.2" xmlns="http://www.w3.org/2000/svg" viewBox="0 0 472 684" width="472" height="684">
	<title>Objects</title>
	<style>
		.s0 { fill: #000000 } 
	</style>
	<g id="Objects">
		<path id="Taurus" fill-rule="evenodd" class="s0" d="m235.1 682.9c-129.5 0-234.9-105.4-234.9-234.9 0-102.5 66.2-191.8 161.4-223q-8.4-2.8-16.4-6.1c-28.2-11.7-54.6-29.3-76.2-51-21.7-21.6-39.3-48-51-76.2-10.7-29.4-15.6-60.5-14-90.3h16c1.5 29.1 8.2 56.4 19.7 81 10.6 25.7 26.5 49.4 46 68.9 19.5 19.4 43.2 35.3 68.5 45.8 25.3 10.5 53.2 16 80.9 16 27.6 0 55.6-5.5 80.8-16 25.4-10.5 49.1-26.4 68.6-45.8 19.5-19.6 35.4-43.3 45.8-68.6q9-19.6 13.8-39.6c3.3-13.6 5.3-27.6 6.1-41.7h16c1.6 29.8-3.2 60.9-14 90.1-11.8 28.6-29.5 54.9-51 76.4-21.7 21.7-48 39.3-76.2 51q-8.1 3.3-16.4 6.1c95.1 31.2 161.4 120.5 161.4 223 0 129.5-105.4 234.9-234.9 234.9zm211.3-234.9c0-116.8-94.5-211.3-211.3-211.3-116.9 0-211.3 94.5-211.3 211.3 0 116.9 94.4 211.3 211.3 211.3 116.8 0 211.3-94.4 211.3-211.3z"/>
	</g>
</svg>