<svg version="1.2" xmlns="http://www.w3.org/2000/svg" viewBox="0 0 748 680" width="748" height="680">
	<title>Objects</title>
	<style>
		.s0 { fill: #000000;stroke: #000000;stroke-width: 16 } 
	</style>
	<g id="Objects">
		<path id="Cancer" fill-rule="evenodd" class="s0" d="m10.7 269.3c0-24.2 6.7-46.8 18.2-66.2 12.4-26.5 29-51.1 48.4-73.3 26.7-28.5 58.3-52.4 92.7-71 68.8-37.3 148.3-53.1 226.1-48.5 19.5 1.2 38.9 3.6 58.1 7.3 19.1 3.8 38 8.9 56.5 15.3 36.8 12.7 72 30.7 103.5 53.8 31.5 23.2 59.4 51.5 81.2 84 20.7 33.2 35.2 70.4 40.6 108.8-4.3-18.9-10.4-37.3-18.3-54.8-7.9-17.5-17.6-34.1-28.7-49.7-21.1-31.8-48.4-59.5-79.3-82.1-30.8-22.7-65.3-40.3-101.5-52.9-18.1-6.2-36.7-11.2-55.5-14.9-18.8-3.7-37.9-6-57-7.2-76.5-4.6-154.7 11-222.1 47.6-33.7 18.2-64.6 41.6-90.7 69.5-14.5 14.4-27.5 30.3-38.8 47.4 23.8-26.7 58.5-43.5 97-43.5 71.9 0 130.4 58.5 130.4 130.4 0 71.9-58.5 130.4-130.4 130.4-71.9 0-130.4-58.5-130.4-130.4zm253.2 0c0-67.9-54.9-122.8-122.8-122.8-67.9 0-122.8 54.9-122.8 122.8 0 67.9 54.9 122.8 122.8 122.8 67.9 0 122.8-54.9 122.8-122.8zm457.7 208.2c-12.4 26.5-29 51.1-48.4 73.3-26.8 28.5-58.4 52.4-92.7 71-68.8 37.3-148.3 53.1-226.1 48.5-19.5-1.2-38.9-3.6-58.1-7.3-19.1-3.8-38-8.9-56.5-15.3-36.9-12.7-72-30.7-103.6-53.8-31.5-23.2-59.3-51.5-81.1-84-20.8-33.2-35.2-70.4-40.6-108.8 4.3 18.9 10.4 37.3 18.3 54.8 7.8 17.5 17.5 34.1 28.6 49.7 21.2 31.8 48.5 59.5 79.3 82.1 30.9 22.7 65.4 40.4 101.6 52.9 18.1 6.2 36.7 11.2 55.5 15 18.8 3.6 37.9 5.9 57 7.1 76.5 4.6 154.6-11 222.1-47.6 33.7-18.2 64.6-41.6 90.7-69.5 14.4-14.4 27.4-30.3 38.8-47.4-23.9 26.7-58.5 43.5-97 43.5-71.9 0-130.4-58.5-130.4-130.4 0-71.9 58.5-130.4 130.4-130.4 71.9 0 130.4 58.5 130.4 130.4 0 24.2-6.7 46.8-18.2 66.2zm10.6-66.2c0-67.9-54.9-122.8-122.8-122.8-67.9 0-122.8 54.9-122.8 122.8 0 67.9 54.9 122.8 122.8 122.8 67.9 0 122.8-54.9 122.8-122.8z"/>
	</g>
</svg>