<svg version="1.2" xmlns="http://www.w3.org/2000/svg" viewBox="0 0 592 684" width="592" height="684">
	<title>Objects</title>
	<style>
		.s0 { fill: #000000 } 
	</style>
	<g id="Objects">
		<path id="Leo 1 " fill-rule="evenodd" class="s0" d="m471.6 682.7q-7 0-14.1-0.8c-13.6-1.7-27.8-6.4-42.2-13.9-12.7-6.8-24.6-15.6-35.2-26.2-10.2-10.3-18.9-22.2-25.8-35.5-6.5-12.3-11.6-25.9-15.2-40.4-6.4-25.9-7.8-54.3-4.1-84.6 3-24.6 9.6-50.2 20.9-80.8 6-16.1 12.6-32.1 19-47.6 3.8-9.2 7.7-18.5 11.3-27.7 8.8-22 18.4-48.1 23.7-75 5.3-26.2 5.9-51.8 1.9-76.3-4.2-25.8-12.8-49.9-25.5-71.7-13.4-22.9-30.9-42.2-50.5-55.7-10.5-7.2-21.6-12.6-33-16.2-11.7-3.6-23.8-5.2-36.1-4.9-24.4 0.7-49 8.8-69.4 22.9-19.5 13.2-36.4 32.6-49 56.2-5.4 10.2-10.4 21.8-15.1 35.4-4.2 12-7.7 24.6-10.4 37.5-2.7 12.5-4.2 25.6-5.6 38.3l-0.1 0.8c-1.4 12.7-2.4 25.7-3.3 39.8-0.5 9.4-1 19.2-1.3 29.7 12.5-3.3 25.4-5 38.4-5 82.7 0 149.9 67.2 149.9 149.9 0 82.6-67.2 149.9-149.9 149.9-82.6 0-149.9-67.3-149.9-149.9 0-59.4 36.2-114 90.5-137.6 0.3-13.7 0.8-26.2 1.5-38.2 1.4-26.6 4.1-53.3 8.3-81.5 2.4-14.2 5.5-28 9.6-41 4-12.9 9.4-25.7 16.6-39.2 7-13.1 15.1-25.1 24.1-35.6 9.9-11.4 20.8-21.2 32.3-29 24.1-16.6 53.3-26.2 82.2-26.9 14.7-0.5 29.5 1.5 43.7 5.9 13.6 4.2 26.9 10.7 39.4 19.3 22.8 15.7 42.1 36.9 57.5 63.2 28.5 48.8 38.1 108.8 26.4 164.6-5.7 28.7-15.8 56-24.9 79-3.8 9.4-7.6 18.8-11.5 28.1-6.3 15.3-12.9 31.1-18.6 46.7-10.7 28.8-16.9 52.8-19.7 75.5-3.3 27.4-2.1 53 3.6 76.1 6.6 26.3 18.6 48.7 34.8 64.8 9 9 18.9 16.4 29.6 22 10.5 5.6 22.1 9.5 34.5 11.7 12.1 2 24.4 1.6 35.6-1.1 11.5-2.8 22.7-8 33.1-15.3 19.5-13.7 36-33.9 47.5-58.5l14.6 6.4c-11.5 27.9-29 51.4-50.4 68-12.1 9.3-25.3 16.1-39.2 20.1-9.6 2.9-20 4.3-30.5 4.3zm-194.4-251.8c0-69.9-56.4-126.3-126.3-126.3-69.8 0-126.3 56.4-126.3 126.3 0 69.8 56.5 126.3 126.3 126.3 69.9 0 126.3-56.5 126.3-126.3z"/>
	</g>
</svg>