<svg version="1.2" xmlns="http://www.w3.org/2000/svg" viewBox="0 0 732 760" width="732" height="760">
	<title>Objects</title>
	<style>
		.s0 { fill: #000000 } 
	</style>
	<g id="Objects">
		<path id="Virgo 1 " fill-rule="evenodd" class="s0" d="m435 760.3l-2.8-15.8c37.4-8.2 71.6-20.6 101.9-37 27.3-13.5 51.6-30.3 72.7-50.2q-1.2-1-2.3-2-1-0.8-1.9-1.6l-3.5-3-2.6-2.7c-6.8-6.5-13-14.6-19.3-25.5l-0.3-0.4q-1.8-3.5-3.4-7c-0.9-1.8-1.6-3.7-2.2-5.4q-0.3-1.1-0.7-2.2c-1.6-3.8-2.5-7.7-3.5-11.4q-0.4-2-1-4l-0.1-0.5c-0.4-1.7-0.6-3.5-0.9-5.2l-0.9-6.4c-0.2-1.2-0.2-2.3-0.3-3.3l-0.4-8.8-0.1-7.7v-409.4c0.2-19.4-3.2-37-10-52.2-7.2-16.2-18-31-31.3-42.8-13.6-12.1-29.5-20.9-46.1-25.7-17-4.9-35.3-6.2-52.9-3.6-17.5 1.9-34.9 8-50.5 17.7-12.6 7.9-24.2 18.4-33.6 30.5 9 15.7 15 32.9 17.6 50.3l1.1 7.6 0.7 14v88.9 326.7c-0.4 13-0.8 25.7-1.2 38.4-0.8 23.2-1.6 47.2-2.6 70.9h-15.9c-1.1-23.8-1.8-47.9-2.6-71.2q-0.6-18.9-1.2-37.8l-0.1-415.3-0.6-12.6-0.9-6.1c-4.8-32.5-24-63.1-51.2-81.8-26.9-18.9-62.2-25.9-94.7-18.9-17 3.1-32.9 9.5-46.4 18.5-12.3 8.1-23.2 18.5-32.5 31q0.4 1 0.9 2c5.7 13.3 9.8 27.7 12.2 42.8l0.2 1.5v413.2c0.6 40.7-1.3 82.1-3.1 122.1l-0.7 15.9h-16l-0.7-16.1c-1.9-39.9-3.8-81.3-3.1-122.1v-411.7c-2.1-12.9-5.6-25-10.5-36.2-0.8-1.8-1.6-3.6-2.5-5.4q-0.9-1.7-1.7-3.5c-0.9-1.5-1.9-3.4-3-5.3l-1.6-2.6c-0.9-1.4-1.9-2.8-2.9-4.2q-1.3-1.8-2.5-3.6l-1-1.2q-2.5-3.2-5-6.5c-8-9.6-17.9-17.4-28.7-22.7-10.8-5.2-23.5-8.4-36.6-9.1l0.1-16c15.8-0.8 30.8 1.6 44.5 7 13.9 5.4 27.1 14.2 38 25.5l1.6 1.6c2 2.3 4.1 4.6 6 7.1l1.6 2.3c1.7 2.4 3.4 4.8 4.9 7.3q0.4 0.6 0.8 1.3c19.5-27.4 49.4-47.9 82.5-56 39.1-8.3 81.4 0.1 113.3 22.6 12.7 8.7 24.1 19.8 33.6 32.4 9.1-12.5 20.1-23.4 32.4-32.2 17.7-12.4 37.7-20.8 58-24.3 9.9-1.7 20.6-2.1 31.9-1.2 9.6 0.5 19.8 2.3 31.1 5.5 20 5.6 39.1 16.3 55.3 30.6 15.8 14.1 28.7 31.7 37.2 51 8 18 12.2 39.3 12 61.8v88.1c0.7-1.3 1.3-2.6 2-3.8 0.5-1 0.8-1.6 1.1-2.2 0.8-1.6 1.7-3.5 3.1-5.4l4.4-6.5 5.2-6.2c1.3-1.3 2.7-2.6 4.1-3.8l2.3-2.1c2.2-1.6 4.5-3.1 6.7-4.5l0.7-0.4c6.1-3.1 11.5-5 16.8-5.7l4.5-0.7 3.5-0.2c2.6-0.2 5 0 7.2 0.2l4.9 0.6 5.7 1.5c2.3 0.7 4.3 1.6 6.1 2.5q0.9 0.5 1.9 0.9l0.7 0.3c8.8 4.8 16.7 12.2 24 22.5 5.9 8.3 10.8 17.3 14.7 26.7 1.3 2.8 2.4 6 3.5 9q0.8 2.2 1.6 4.4l0.2 0.5q0.7 2.2 1.4 4.3c1 3.1 2 6.3 2.8 9.6 4.8 17.4 8.2 36 10.3 56.6 3.7 36.4 3.1 74.7-1.9 113.9-4.9 38.5-14 75.7-27.2 110.7-12.8 34.8-32.1 67.1-55.9 93.9q0.2 0 0.4 0.1l2.5 1.3c1 0.5 2.2 1 3.4 1.5q1.3 0.5 2.6 1c2.1 0.9 3.9 1.6 5.7 2l6.9 2.1 9.9 1.9 10.5 0.9-0.5 16c-20 0.5-39-3.7-55.5-12.1-23.6 23.1-51.3 42.7-82.4 58.3-17.3 7.9-35.4 14.6-54.1 20-17.9 5.2-36.7 9.1-55.8 11.7zm179.6-124.7l2.3 2.2c0.6 0.6 1.3 1.2 1.9 1.8 0.9 1 1.8 1.9 2.8 2.7 23.2-25.3 41.2-55.2 53.6-88.9 12.6-33.3 21.3-68.7 25.9-105.4 4.8-37.4 5.4-73.9 1.9-108.5-2.1-19.3-5.2-36.6-9.6-52.8-0.8-3-1.7-5.7-2.6-8.5q-0.6-2.1-1.3-4.1-0.8-2.2-1.6-4.4c-1-2.7-1.9-5.3-3-7.6l-0.1-0.4c-3.2-7.8-7.3-15.2-12.1-22.1-5.1-7.1-10.5-12.3-16.1-15.3-5.5-3.1-12-4-19.3-2.7-2.9 0.5-5.7 1.4-9.4 3.2l-0.5 0.4c-1.2 0.7-2.4 1.5-3.6 2.4q-0.8 0.7-1.6 1.4c-0.9 0.8-1.7 1.6-2.5 2.4-5.1 5.2-8.6 12.4-12.3 20.1-8 17.1-12.5 36.2-15.6 50.8l-2.7 13.5-2.1 13.2v231.2c-0.2 9.6 0.5 18.1 2.1 26.8 1.8 8 4.8 16.3 8.9 24.3 3.3 6.4 8 14.8 14.4 21.7z"/>
	</g>
</svg>