<svg version="1.2" xmlns="http://www.w3.org/2000/svg" viewBox="0 0 692 684" width="692" height="684">
	<title>Objects</title>
	<style>
		.s0 { fill: #000000 } 
	</style>
	<g id="Objects">
		<path id="Libra" fill-rule="evenodd" class="s0" d="m466.5 507.6l-39.4 0.7 34.2-20.6 6.2-3.7c10.4-6.3 21.1-13.1 30.8-20.9 11.3-8.7 21.3-18.8 29.7-27.7 18-20.2 32.7-42.9 43.3-67.4 10.5-24.8 17-51.1 19.1-78 2.1-26.3-0.2-53.3-6.9-80-7.1-26.7-18.1-51.4-32.6-73.3-15.3-23-33.7-42.8-54.6-58.9-42.2-33.1-95.4-51.3-149.7-51.3q-0.2 0-0.3 0c-54.4 0-107.5 18.2-149.7 51.3-20.9 16.1-39.3 35.9-54.6 58.9-14.5 21.9-25.5 46.6-32.6 73.4-6.7 26.6-9 53.6-7 79.9 2.2 26.9 8.6 53.2 19.2 78.1 10.6 24.4 25.2 47.1 43.4 67.5 8.2 8.6 18.2 18.8 29.4 27.3 9.4 7.7 19.3 14 31 21.1l6.4 4-0.2-0.2 33.7 20.5-38.9-0.7-7.4-0.1-215.8-3.7v-16l180.7-3.1q-2.2-1.6-4.2-3.3c-12.3-9.4-23.1-20.4-32.1-29.9-20-22.4-36-47.3-47.7-74.1-11.6-27.3-18.6-56.1-21-85.5-2.3-29 0.3-58.5 7.6-87.7 7.8-29.4 19.9-56.5 35.9-80.5 16.7-25.2 36.8-46.9 59.8-64.5 46.2-36.3 104.5-56.3 164.1-56.3q0.1 0 0.3 0c59.6 0 117.9 20 164.2 56.3 22.9 17.6 43 39.3 59.7 64.5 16 24 28.1 51.1 35.8 80.4 7.4 29.3 9.9 58.8 7.7 87.8-2.4 29.4-9.4 58.2-21 85.4-11.7 26.9-27.7 51.8-47.6 74.1-9.1 9.6-19.9 20.5-32.4 30.2q-1.9 1.6-3.9 3.1 18.4 0.3 36.8 0.6c46.7 0.7 94.9 1.5 142.4 2.5v16c-47.5 1-95.7 1.8-142.4 2.5q-36 0.6-72 1.2zm-377.7 176.8h-0.2q-13.2-0.6-26.4-1.1c-19.4-0.8-39.5-1.7-59.3-2.8v-15.9c19.7-1.1 39.6-2 58.9-2.8q13.4-0.5 26.8-1.1h514c10.3 0.5 20.4 0.9 30.4 1.3 18.2 0.8 37 1.6 55.6 2.6v15.9c-18.6 1-37.5 1.8-55.8 2.6q-14.9 0.6-29.9 1.2z"/>
	</g>
</svg>