<svg version="1.2" xmlns="http://www.w3.org/2000/svg" viewBox="0 0 752 724" width="752" height="724">
	<title>Objects</title>
	<style>
		.s0 { fill: #000000 } 
	</style>
	<g id="Objects">
		<path id="Scorpio" fill-rule="evenodd" class="s0" d="m669.1 720.9v-38.7c-19-0.8-37-5.9-52.4-14.9-4-2.1-7.5-4.6-10.9-6.9l-2.3-1.7c-1.7-1.2-3.1-2.4-4.4-3.6q-1-0.8-1.9-1.6l-3.5-3-2.6-2.7c-6.7-6.3-12.9-14.5-19.3-25.5l-1.1-2.1q-1.4-2.6-2.7-5.3c-0.8-1.8-1.5-3.7-2.1-5.4q-0.3-1.1-0.8-2.2c-1.5-3.9-2.5-7.8-3.4-11.6q-0.5-1.9-1-3.7l-0.1-0.5c-0.4-1.8-0.6-3.6-0.9-5.3l-1-6.3c-0.1-1.3-0.2-2.3-0.2-3.3l-0.5-8.9v-7.7-409.4c0.1-19.4-3.2-36.9-10.1-52.1-7.1-16.3-17.9-31.1-31.2-42.9-13.6-12-29.5-20.9-46.1-25.6-17.1-5-35.3-6.2-52.9-3.7-17.6 2.1-35 8.2-50.5 17.7-12.6 7.9-23.8 18-33.2 30 1.9 4.2 3.6 8.5 5.1 12.9 0.9 2.6 1.5 5.3 2.2 7.9q0.4 1.8 0.9 3.7l0.1 0.6c0.6 2.6 1 5.3 1.3 7.9q0.3 1.9 0.6 3.8l0.1 0.9 0.6 12 0.1 460.6c-0.4 9.7-0.8 19-1.2 28.3-0.8 20.3-1.6 41.4-2.7 62.1h-16c-1.1-20.7-1.9-41.8-2.7-62.1q-0.5-14-1.1-27.9v-449.8-11l-0.5-10.2q-0.3-1.8-0.6-3.7c-0.3-2-0.6-4-0.9-6q-0.5-1.9-1-3.7c-0.5-2.2-1-4.2-1.7-6-3.4-10.7-9-20.9-16.2-30-6.1-6.7-12.9-12.7-20.3-17.8-26.9-18.9-62.2-25.9-94.7-18.9-17 3.1-32.9 9.5-46.4 18.5-12.3 8.1-23.2 18.5-32.5 31q0.4 1 0.9 2.1c5.7 13.2 9.8 27.6 12.3 42.7l0.1 1.5v413.2c0.7 40.7-1.2 82.1-3.1 122.1l-0.7 15.9h-16l-0.7-16c-1.9-40-3.8-81.3-3.1-122.1v-411.8c-2.1-12.8-5.6-25-10.5-36.1-0.7-1.9-1.6-3.7-2.5-5.5q-0.9-1.7-1.7-3.4c-0.8-1.6-1.9-3.5-3-5.3l-1.6-2.7c-0.9-1.4-1.9-2.8-2.9-4.2q-1.3-1.8-2.5-3.5l-1-1.3q-2.5-3.2-5-6.5c-8-9.6-17.9-17.4-28.7-22.6-10.8-5.3-23.5-8.5-36.6-9.2l0.1-16c15.8-0.7 30.8 1.6 44.5 7.1 13.9 5.4 27.1 14.2 38.1 25.4l1.5 1.7c2 2.2 4.1 4.5 6.1 7l1.6 2.3c1.6 2.4 3.3 4.8 4.8 7.3q0.4 0.7 0.8 1.3c19.5-27.4 49.5-47.9 82.5-56 38.4-8.2 79.9-0.1 111.6 21.5 8.1 5 15.6 11 22.2 17.9q3.3 3.6 6.2 7.4c1.4 1.5 2.7 3 4 4.6q-0.1 0.3-0.2 0.6c0.3 0.5 0.6 0.9 0.9 1.3 8.8-11.7 19.4-22.1 31.2-30.5 17.7-12.4 37.7-20.8 57.9-24.3 10-1.6 20.8-2 32-1.2 9.6 0.5 19.8 2.3 31.1 5.5 19.9 5.7 39.1 16.3 55.3 30.7 15.8 14 28.7 31.7 37.1 50.9 8.1 18 12.3 39.4 12.1 61.8v409.3c-0.2 9.7 0.5 18.1 2.1 26.8 1.8 8 4.8 16.3 8.8 24.4 4.8 9.3 9.4 16.2 14.4 21.6l2.3 2.7 2.3 2.2c0.6 0.5 1.2 1.2 1.9 1.8 0.9 1 1.9 1.9 2.9 2.7l2.2 1.8c2.8 2.3 5.4 4.4 8.2 6l0.5 0.4c2.7 1.9 5.7 3.4 8.9 5.1l2.7 1.4c1 0.5 2.3 1 3.5 1.4q1.3 0.5 2.6 1.1c1.8 0.7 3.7 1.5 5.6 2l6.9 2 11.7 2.1v-38l81 46.7zm16-27.7l32.9-19-32.9-19z"/>
	</g>
</svg>