<svg version="1.2" xmlns="http://www.w3.org/2000/svg" viewBox="0 0 676 676" width="676" height="676">
	<title>Objects</title>
	<style>
		.s0 { fill: #000000 } 
	</style>
	<g id="Objects">
		<path id="Sagittarius" class="s0" d="m672.7 3v223.2q-0.7 12.2-1.3 24.4c-0.7 15.1-1.5 30.6-2.5 46h-16c-1-15.3-1.7-30.8-2.5-45.8q-0.6-12.3-1.3-24.6v-0.5-182.4l-463.7 463.7 58.3 58.5 1.5 1.8c5.9 7.4 11.9 15 17.7 22.8l16.7 22.6c-1.7 1.8-3.1 3.9-4.1 6.2l-23.8-17.6c-7.8-5.8-15.4-11.9-22.8-17.8l-2.5-2-57.7-57.8-29 29c-11.8 11.3-23.5 22.5-35.2 33.8-29.9 28.7-60.8 58.4-91.5 87.5l-11.3-11.3c29-30.7 58.7-61.6 87.5-91.5q16.8-17.5 33.7-35.1l29.1-29.1-56.4-56.4c-7.2-9-13.2-16.5-19.2-24.7l-14.2-19.4c2.2-1.7 4.1-3.9 5.4-6.4l20 14.7c8.1 5.9 15.7 11.9 24.7 19.2l0.6 0.6 55.8 55.7 463.7-463.7h-182.4c-22.1-1-46.6-2.2-70.9-3.9v-15.9c24.5-1.7 50-2.9 70.5-3.9z"/>
	</g>
</svg>